<svg xmlns="http://www.w3.org/2000/svg" width="96" height="157" viewBox="0 0 96 157">
  <g id="Grupo_290" data-name="Grupo 290" transform="translate(-139 -151)">
    <rect id="Rectangle_191" data-name="Rectangle 191" width="96" height="157" rx="13" transform="translate(139 151)" fill="#fff"/>
    <path id="Retângulo_191_-_Contorno" data-name="Retângulo 191 - Contorno" d="M13,6a7.008,7.008,0,0,0-7,7V144a7.008,7.008,0,0,0,7,7H83a7.008,7.008,0,0,0,7-7V13a7.008,7.008,0,0,0-7-7H13m0-6H83A13,13,0,0,1,96,13V144a13,13,0,0,1-13,13H13A13,13,0,0,1,0,144V13A13,13,0,0,1,13,0Z" transform="translate(139 151)" fill="#707070"/>
    <path id="Caminho_188" data-name="Caminho 188" d="M10520.377-1157.085h0a4.5,4.5,0,0,1-3.182-1.318l-12.65-12.651a4.5,4.5,0,0,1,0-6.364,4.5,4.5,0,0,1,6.363,0l9.469,9.469,21-20.994a4.5,4.5,0,0,1,6.363,0,4.5,4.5,0,0,1,0,6.364l-24.177,24.176A4.5,4.5,0,0,1,10520.377-1157.085Z" transform="translate(-10339.641 1403.173)" fill="#fecd5e"/>
    <path id="Caminho_189" data-name="Caminho 189" d="M10543.913-1106.487h-41.333a2,2,0,0,1-2-2,2,2,0,0,1,2-2h41.333a2,2,0,0,1,2,2A2,2,0,0,1,10543.913-1106.487Z" transform="translate(-10336.746 1396)" fill="#707070"/>
  </g>
</svg>
