<svg xmlns="http://www.w3.org/2000/svg" width="22" height="22.229" viewBox="0 0 22 22.229">
  <g id="Group_41" data-name="Group 41" transform="translate(-4966.89 -501.105)">
    <g id="Group_40" data-name="Group 40" transform="translate(4966.89 502)">
      <g id="Group_39" data-name="Group 39">
        <path id="Subtraction_2" data-name="Subtraction 2" d="M10.667,21.335A10.667,10.667,0,1,1,15.882,1.359l-.79.79a9.608,9.608,0,1,0,3.927,3.788l.782-.782a10.67,10.67,0,0,1-9.134,16.181Zm0-4.268A6.4,6.4,0,1,1,12.658,4.582l-.87.87a5.333,5.333,0,1,0,4,3.716l.84-.84a6.4,6.4,0,0,1-5.96,8.739Z" fill="#032b44"/>
      </g>
    </g>
    <path id="Caminho_1" data-name="Caminho 1" d="M3159.4,598.085a.5.5,0,0,1-.354-.854l10.267-10.267a.5.5,0,0,1,.707.707l-10.267,10.267A.5.5,0,0,1,3159.4,598.085Z" transform="translate(1818.726 -85.713)" fill="#032b44"/>
    <path id="Caminho_2" data-name="Caminho 2" d="M3161.646,598.358h-2.74a.5.5,0,0,1-.5-.5v-2.8a.5.5,0,0,1,1,0v2.3h2.24a.5.5,0,0,1,0,1Z" transform="translate(1818.593 -85.353)" fill="#032b44"/>
  </g>
</svg>
