<svg xmlns="http://www.w3.org/2000/svg" width="25.717" height="26.275" viewBox="0 0 25.717 26.275">
  <g id="Google__G__Logo" data-name="Google_&quot;G&quot;_Logo" transform="translate(26.754 -39.239)">
    <path id="Path_206" data-name="Path 206" d="M-2.175,51.724a15.221,15.221,0,0,0-.208-2.485H-14.754v4.938h7.083A6.1,6.1,0,0,1-10.3,58.1V61.38h4.226A12.845,12.845,0,0,0-2.175,51.724Z" transform="translate(1.138 0.948)" fill="#4285f4"/>
    <path id="Path_207" data-name="Path 207" d="M-13.739,64.16a12.514,12.514,0,0,0,8.682-3.186l-4.226-3.284a7.925,7.925,0,0,1-4.456,1.27,7.846,7.846,0,0,1-7.368-5.43h-4.357v3.383A13.118,13.118,0,0,0-13.739,64.16Z" transform="translate(0.122 1.355)" fill="#34a853"/>
    <path id="Path_208" data-name="Path 208" d="M-20.984,54.256a7.624,7.624,0,0,1-.416-2.507,7.92,7.92,0,0,1,.416-2.507V45.859h-4.357a12.985,12.985,0,0,0-1.412,5.89,12.985,12.985,0,0,0,1.412,5.89Z" transform="translate(0 0.628)" fill="#fbbc05"/>
    <path id="Path_209" data-name="Path 209" d="M-13.739,44.439A7.128,7.128,0,0,1-8.7,46.41l3.744-3.744a12.561,12.561,0,0,0-8.78-3.427,13.118,13.118,0,0,0-11.725,7.248l4.357,3.383A7.846,7.846,0,0,1-13.739,44.439Z" transform="translate(0.122)" fill="#ea4335"/>
  </g>
</svg>
