<svg xmlns="http://www.w3.org/2000/svg" width="25.111" height="25.111" viewBox="0 0 25.111 25.111">
  <g id="LinkedIn_icon_circle" transform="translate(-5.833 -5.056)">
    <path id="Path_216" data-name="Path 216" d="M40.111,38.111h-5.16V29.323c0-2.409-.916-3.756-2.823-3.756-2.075,0-3.159,1.4-3.159,3.756v8.788H24V21.37h4.972v2.255a5.84,5.84,0,0,1,5.048-2.766c3.551,0,6.093,2.168,6.093,6.653ZM18.066,19.178a3.089,3.089,0,1,1,3.065-3.089A3.078,3.078,0,0,1,18.066,19.178ZM15.5,38.111h5.185V21.37H15.5Z" transform="translate(-9.167 -7.944)" fill="#007ebb" fill-rule="evenodd"/>
  </g>
</svg>
