<svg xmlns="http://www.w3.org/2000/svg" width="184.485" height="52.182" viewBox="0 0 184.485 52.182">
  <g id="Group_275" data-name="Group 275" transform="translate(-523.82 -672.881)">
    <path id="Path_132" data-name="Path 132" d="M25.8-10.225l5.239-19h7.872L29.4-1.024H22.2l-9.513-28.2H20.56Z" transform="translate(511.132 714.722)" fill="#2b2e34"/>
    <path id="Path_133" data-name="Path 133" d="M18.836-1.024h7.558v-28.2H18.836Z" transform="translate(533.839 714.722)" fill="#2b2e34"/>
    <path id="Path_134" data-name="Path 134" d="M41-21.752a20.47,20.47,0,0,0-2.711-.208q-4.275,0-5.6,2.893V-.613H25.156v-28.2h7.116l.208,3.362a6.98,6.98,0,0,1,6.281-3.884A7.9,7.9,0,0,1,41.108-29Z" transform="translate(557.183 714.311)" fill="#2b2e34"/>
    <path id="Path_135" data-name="Path 135" d="M48.066-.092A13.844,13.844,0,0,1,37.966-3.9a13.526,13.526,0,0,1-3.9-10.139v-.73a17.041,17.041,0,0,1,1.642-7.6,12.05,12.05,0,0,1,4.653-5.161,13.058,13.058,0,0,1,6.868-1.812,11.7,11.7,0,0,1,9.109,3.649q3.323,3.649,3.324,10.347v3.076H41.707a7,7,0,0,0,2.2,4.431,6.659,6.659,0,0,0,4.653,1.668,8.131,8.131,0,0,0,6.8-3.154l3.7,4.144a11.309,11.309,0,0,1-4.587,3.74A15.049,15.049,0,0,1,48.066-.092Zm-.86-23.145a4.718,4.718,0,0,0-3.636,1.512A7.814,7.814,0,0,0,41.785-17.4H52.262V-18a5.567,5.567,0,0,0-1.355-3.87A4.868,4.868,0,0,0,47.206-23.237Z" transform="translate(590.104 714.311)" fill="#2b2e34"/>
    <path id="Path_136" data-name="Path 136" d="M39.869-22.392a1.643,1.643,0,0,1,.56-.964,1.5,1.5,0,0,1,1.03-.444,1.162,1.162,0,0,1,.964.469,1.341,1.341,0,0,1,.287,1.042,1.571,1.571,0,0,1-.573.951,1.573,1.573,0,0,1-1.043.43,1.264,1.264,0,0,1-.964-.469A1.191,1.191,0,0,1,39.869-22.392Z" transform="translate(611.439 734.761)" fill="#2b2e34"/>
    <path id="Path_137" data-name="Path 137" d="M59.548-.613a22.608,22.608,0,0,1,.5-5.161,15.814,15.814,0,0,1-5.2,4.2A14.106,14.106,0,0,1,48.315-.092a7.493,7.493,0,0,1-5.656-2.19,6.084,6.084,0,0,1-1.59-5.474,8.651,8.651,0,0,1,4.418-6.229,19.315,19.315,0,0,1,9.552-2.372h6.7l.756-4.118a6.064,6.064,0,0,0-1.382-5.461,7.37,7.37,0,0,0-5.552-1.994,11.4,11.4,0,0,0-6.412,1.89,8.047,8.047,0,0,0-3.6,4.965l-1.407-.052a9.288,9.288,0,0,1,4.014-5.917,12.621,12.621,0,0,1,7.4-2.294A8.619,8.619,0,0,1,62.155-26.9a7.37,7.37,0,0,1,1.694,6.477L61.269-5.357l-.183,1.773a10.31,10.31,0,0,0,.1,2.737l-.026.234Zm-11.26-.86a13.181,13.181,0,0,0,6.647-1.681A15.279,15.279,0,0,0,60.3-8.224l1.2-6.7H55.2A18.431,18.431,0,0,0,46.5-12.9,7.5,7.5,0,0,0,42.45-7.651,4.713,4.713,0,0,0,43.689-3.3,6.257,6.257,0,0,0,48.289-1.473Z" transform="translate(615.575 714.311)" fill="#2b2e34"/>
    <path id="Path_138" data-name="Path 138" d="M48.552-15a24.353,24.353,0,0,1,2.567-7.611,13.553,13.553,0,0,1,4.444-5.044,10.278,10.278,0,0,1,5.682-1.681,8.876,8.876,0,0,1,5.226,1.525,8.359,8.359,0,0,1,3.115,4.158l.938-5.161h1.408L67.266-1.6a16.061,16.061,0,0,1-4.34,9.083,11.1,11.1,0,0,1-8.041,3.271,9.233,9.233,0,0,1-8.288-4.8l1.069-.887q2.684,4.3,7.142,4.3a9.878,9.878,0,0,0,7-2.749,14.017,14.017,0,0,0,3.923-7.754L66.51-5.07A13.233,13.233,0,0,1,62.04-1.4,12.39,12.39,0,0,1,56.4-.092a7.666,7.666,0,0,1-4.64-1.368,7.957,7.957,0,0,1-2.776-4.014,16.326,16.326,0,0,1-.8-5.826A36.66,36.66,0,0,1,48.552-15Zm1.042,3.31q-.339,4.744,1.421,7.467A5.914,5.914,0,0,0,56.345-1.5a11.421,11.421,0,0,0,6.073-1.655,12.761,12.761,0,0,0,4.431-4.653l2.294-12.8a8.848,8.848,0,0,0-2.567-5.447,7.576,7.576,0,0,0-5.33-1.877A8.859,8.859,0,0,0,55.3-25.687a14.486,14.486,0,0,0-4.04,6.151A27.443,27.443,0,0,0,49.594-11.691Z" transform="translate(636.373 714.311)" fill="#2b2e34"/>
    <path id="Path_139" data-name="Path 139" d="M36.554-25.635a3.822,3.822,0,0,0-3.821-3.821,3.822,3.822,0,0,0-3.82,3.821V-3.888a3.822,3.822,0,0,0,3.82,3.821,3.822,3.822,0,0,0,3.821-3.821Z" transform="translate(571.06 713.874)" fill="#ffa133" fill-rule="evenodd"/>
    <path id="Path_140" data-name="Path 140" d="M43.271-16.4,35.925-27.435a3.823,3.823,0,0,0-5.3-1.064,3.822,3.822,0,0,0-1.064,5.3L43.81-1.795a3.808,3.808,0,0,0,2.32,1.6,3.814,3.814,0,0,0,.96.122,3.822,3.822,0,0,0,3.821-3.821V-25.635a3.822,3.822,0,0,0-3.821-3.821,3.822,3.822,0,0,0-3.82,3.821Z" transform="translate(571.1 713.874)" fill="#ffa133" fill-rule="evenodd"/>
    <path id="Path_141" data-name="Path 141" d="M36.673-27.976a3.939,3.939,0,0,0-3.937-3.937A3.939,3.939,0,0,0,28.8-27.976a3.939,3.939,0,0,0,3.937,3.937A3.939,3.939,0,0,0,36.673-27.976Z" transform="translate(570.639 704.794)" fill="#ffa133" fill-rule="evenodd"/>
    <path id="Path_142" data-name="Path 142" d="M43.271-16.4,35.925-27.435a3.823,3.823,0,0,0-5.3-1.064,3.822,3.822,0,0,0-1.064,5.3L43.81-1.795a3.808,3.808,0,0,0,2.32,1.6,3.814,3.814,0,0,0,.96.122,3.822,3.822,0,0,0,3.821-3.821V-25.635a3.822,3.822,0,0,0-3.821-3.821,3.822,3.822,0,0,0-3.82,3.821Z" transform="translate(571.1 713.874)" fill="#ffa133" fill-rule="evenodd"/>
    <path id="Path_143" data-name="Path 143" d="M36.673-27.976a3.939,3.939,0,0,0-3.937-3.937A3.939,3.939,0,0,0,28.8-27.976a3.939,3.939,0,0,0,3.937,3.937A3.939,3.939,0,0,0,36.673-27.976Z" transform="translate(570.639 704.794)" fill="#ffa133" fill-rule="evenodd"/>
    <path id="Path_144" data-name="Path 144" d="M26.546-27.763a3.822,3.822,0,0,0-3.821-3.821,3.822,3.822,0,0,0-3.82,3.821,3.822,3.822,0,0,0,3.82,3.82A3.822,3.822,0,0,0,26.546-27.763Z" transform="translate(534.094 706.011)" fill="#0f0e0d" fill-rule="evenodd"/>
    <path id="Path_145" data-name="Path 145" d="M32.631-30.7v6.933h4.822v5.526H32.631V-4.169a3.358,3.358,0,0,0,.6,2.241,3.009,3.009,0,0,0,2.294.678,12.021,12.021,0,0,0,2.215-.182V4.276a15.5,15.5,0,0,1-4.561.678q-7.924,0-8.08-8v-15.2H20.98v-5.526H25.1V-30.7Z" transform="translate(541.758 709.266)" fill="#2b2e34"/>
    <path id="Path_146" data-name="Path 146" d="M25.8-10.225l5.239-19h7.872L29.4-1.024H22.2l-9.513-28.2H20.56Z" transform="translate(511.132 714.722)" fill="#2b2e34"/>
    <path id="Path_147" data-name="Path 147" d="M18.836-1.024h7.558v-28.2H18.836Z" transform="translate(533.839 714.722)" fill="#2b2e34"/>
    <path id="Path_148" data-name="Path 148" d="M41-21.752a20.47,20.47,0,0,0-2.711-.208q-4.275,0-5.6,2.893V-.613H25.156v-28.2h7.116l.208,3.362a6.98,6.98,0,0,1,6.281-3.884A7.9,7.9,0,0,1,41.108-29Z" transform="translate(557.183 714.311)" fill="#2b2e34"/>
    <path id="Path_149" data-name="Path 149" d="M48.066-.092A13.844,13.844,0,0,1,37.966-3.9a13.526,13.526,0,0,1-3.9-10.139v-.73a17.041,17.041,0,0,1,1.642-7.6,12.05,12.05,0,0,1,4.653-5.161,13.058,13.058,0,0,1,6.868-1.812,11.7,11.7,0,0,1,9.109,3.649q3.323,3.649,3.324,10.347v3.076H41.707a7,7,0,0,0,2.2,4.431,6.659,6.659,0,0,0,4.653,1.668,8.131,8.131,0,0,0,6.8-3.154l3.7,4.144a11.309,11.309,0,0,1-4.587,3.74A15.049,15.049,0,0,1,48.066-.092Zm-.86-23.145a4.718,4.718,0,0,0-3.636,1.512A7.814,7.814,0,0,0,41.785-17.4H52.262V-18a5.567,5.567,0,0,0-1.355-3.87A4.868,4.868,0,0,0,47.206-23.237Z" transform="translate(590.104 714.311)" fill="#2b2e34"/>
    <path id="Path_150" data-name="Path 150" d="M39.869-22.392a1.643,1.643,0,0,1,.56-.964,1.5,1.5,0,0,1,1.03-.444,1.162,1.162,0,0,1,.964.469,1.341,1.341,0,0,1,.287,1.042,1.571,1.571,0,0,1-.573.951,1.573,1.573,0,0,1-1.043.43,1.264,1.264,0,0,1-.964-.469A1.191,1.191,0,0,1,39.869-22.392Z" transform="translate(611.439 734.761)" fill="#2b2e34"/>
    <path id="Path_151" data-name="Path 151" d="M59.548-.613a22.608,22.608,0,0,1,.5-5.161,15.814,15.814,0,0,1-5.2,4.2A14.106,14.106,0,0,1,48.315-.092a7.493,7.493,0,0,1-5.656-2.19,6.084,6.084,0,0,1-1.59-5.474,8.651,8.651,0,0,1,4.418-6.229,19.315,19.315,0,0,1,9.552-2.372h6.7l.756-4.118a6.064,6.064,0,0,0-1.382-5.461,7.37,7.37,0,0,0-5.552-1.994,11.4,11.4,0,0,0-6.412,1.89,8.047,8.047,0,0,0-3.6,4.965l-1.407-.052a9.288,9.288,0,0,1,4.014-5.917,12.621,12.621,0,0,1,7.4-2.294A8.619,8.619,0,0,1,62.155-26.9a7.37,7.37,0,0,1,1.694,6.477L61.269-5.357l-.183,1.773a10.31,10.31,0,0,0,.1,2.737l-.026.234Zm-11.26-.86a13.181,13.181,0,0,0,6.647-1.681A15.279,15.279,0,0,0,60.3-8.224l1.2-6.7H55.2A18.431,18.431,0,0,0,46.5-12.9,7.5,7.5,0,0,0,42.45-7.651,4.713,4.713,0,0,0,43.689-3.3,6.257,6.257,0,0,0,48.289-1.473Z" transform="translate(615.575 714.311)" fill="#2b2e34"/>
    <path id="Path_152" data-name="Path 152" d="M48.552-15a24.353,24.353,0,0,1,2.567-7.611,13.553,13.553,0,0,1,4.444-5.044,10.278,10.278,0,0,1,5.682-1.681,8.876,8.876,0,0,1,5.226,1.525,8.359,8.359,0,0,1,3.115,4.158l.938-5.161h1.408L67.266-1.6a16.061,16.061,0,0,1-4.34,9.083,11.1,11.1,0,0,1-8.041,3.271,9.233,9.233,0,0,1-8.288-4.8l1.069-.887q2.684,4.3,7.142,4.3a9.878,9.878,0,0,0,7-2.749,14.017,14.017,0,0,0,3.923-7.754L66.51-5.07A13.233,13.233,0,0,1,62.04-1.4,12.39,12.39,0,0,1,56.4-.092a7.666,7.666,0,0,1-4.64-1.368,7.957,7.957,0,0,1-2.776-4.014,16.326,16.326,0,0,1-.8-5.826A36.66,36.66,0,0,1,48.552-15Zm1.042,3.31q-.339,4.744,1.421,7.467A5.914,5.914,0,0,0,56.345-1.5a11.421,11.421,0,0,0,6.073-1.655,12.761,12.761,0,0,0,4.431-4.653l2.294-12.8a8.848,8.848,0,0,0-2.567-5.447,7.576,7.576,0,0,0-5.33-1.877A8.859,8.859,0,0,0,55.3-25.687a14.486,14.486,0,0,0-4.04,6.151A27.443,27.443,0,0,0,49.594-11.691Z" transform="translate(636.373 714.311)" fill="#2b2e34"/>
    <path id="Path_153" data-name="Path 153" d="M36.554-25.635a3.822,3.822,0,0,0-3.821-3.821,3.822,3.822,0,0,0-3.82,3.821V-3.888a3.822,3.822,0,0,0,3.82,3.821,3.822,3.822,0,0,0,3.821-3.821Z" transform="translate(571.06 713.874)" fill="#ffa133" fill-rule="evenodd"/>
    <path id="Path_154" data-name="Path 154" d="M43.271-16.4,35.925-27.435a3.823,3.823,0,0,0-5.3-1.064,3.822,3.822,0,0,0-1.064,5.3L43.81-1.795a3.808,3.808,0,0,0,2.32,1.6,3.814,3.814,0,0,0,.96.122,3.822,3.822,0,0,0,3.821-3.821V-25.635a3.822,3.822,0,0,0-3.821-3.821,3.822,3.822,0,0,0-3.82,3.821Z" transform="translate(571.1 713.874)" fill="#ffa133" fill-rule="evenodd"/>
    <path id="Path_155" data-name="Path 155" d="M36.673-27.976a3.939,3.939,0,0,0-3.937-3.937A3.939,3.939,0,0,0,28.8-27.976a3.939,3.939,0,0,0,3.937,3.937A3.939,3.939,0,0,0,36.673-27.976Z" transform="translate(570.639 704.794)" fill="#ffa133" fill-rule="evenodd"/>
    <path id="Path_156" data-name="Path 156" d="M43.271-16.4,35.925-27.435a3.823,3.823,0,0,0-5.3-1.064,3.822,3.822,0,0,0-1.064,5.3L43.81-1.795a3.808,3.808,0,0,0,2.32,1.6,3.814,3.814,0,0,0,.96.122,3.822,3.822,0,0,0,3.821-3.821V-25.635a3.822,3.822,0,0,0-3.821-3.821,3.822,3.822,0,0,0-3.82,3.821Z" transform="translate(571.1 713.874)" fill="#ffa133" fill-rule="evenodd"/>
    <path id="Path_157" data-name="Path 157" d="M36.673-27.976a3.939,3.939,0,0,0-3.937-3.937A3.939,3.939,0,0,0,28.8-27.976a3.939,3.939,0,0,0,3.937,3.937A3.939,3.939,0,0,0,36.673-27.976Z" transform="translate(570.639 704.794)" fill="#ffa133" fill-rule="evenodd"/>
    <path id="Path_158" data-name="Path 158" d="M26.546-27.763a3.822,3.822,0,0,0-3.821-3.821,3.822,3.822,0,0,0-3.82,3.821,3.822,3.822,0,0,0,3.82,3.82A3.822,3.822,0,0,0,26.546-27.763Z" transform="translate(534.094 706.011)" fill="#0f0e0d" fill-rule="evenodd"/>
    <path id="Path_159" data-name="Path 159" d="M32.631-30.7v6.933h4.822v5.526H32.631V-4.169a3.358,3.358,0,0,0,.6,2.241,3.009,3.009,0,0,0,2.294.678,12.021,12.021,0,0,0,2.215-.182V4.276a15.5,15.5,0,0,1-4.561.678q-7.924,0-8.08-8v-15.2H20.98v-5.526H25.1V-30.7Z" transform="translate(541.758 709.266)" fill="#2b2e34"/>
  </g>
</svg>
