<svg xmlns="http://www.w3.org/2000/svg" xmlns:xlink="http://www.w3.org/1999/xlink" width="46.657" height="46.657" viewBox="0 0 46.657 46.657">
  <defs>
    <linearGradient id="linear-gradient" x1="0.069" x2="0.974" y2="1" gradientUnits="objectBoundingBox">
      <stop offset="0" stop-color="#ffd991"/>
      <stop offset="1" stop-color="#fe9901"/>
    </linearGradient>
  </defs>
  <g id="Group_218" data-name="Group 218" transform="translate(0 46.657) rotate(-90)">
    <path id="Path_63" data-name="Path 63" d="M5.464,0H41.192a5.464,5.464,0,0,1,5.464,5.464V41.192a5.464,5.464,0,0,1-5.464,5.464H5.464A5.464,5.464,0,0,1,0,41.192V5.464A5.464,5.464,0,0,1,5.464,0Z" transform="translate(0 0)" fill="url(#linear-gradient)"/>
    <path id="Path_61" data-name="Path 61" d="M1.986,6.488A.281.281,0,0,1,1.8,6.43a.431.431,0,0,1-.11-.163L.018,2.171,0,2.092a.187.187,0,0,1,.057-.137A.2.2,0,0,1,.2,1.9h1a.248.248,0,0,1,.256.185l1,2.71L3.46,2.083A.248.248,0,0,1,3.716,1.9h1a.2.2,0,0,1,.141.057.18.18,0,0,1,.062.137L4.9,2.171l-1.668,4.1a.406.406,0,0,1-.115.163.3.3,0,0,1-.194.057ZM5.817,1.236A.212.212,0,0,1,5.6,1.015V.221A.212.212,0,0,1,5.817,0H6.876A.212.212,0,0,1,7.1.221v.794a.212.212,0,0,1-.221.221Zm.009,5.252a.212.212,0,0,1-.221-.221V2.118A.212.212,0,0,1,5.826,1.9H6.867a.212.212,0,0,1,.221.221V6.267a.219.219,0,0,1-.062.154.208.208,0,0,1-.159.066Zm4.652,0q-1.827,0-1.827-1.739V3.054H7.962A.23.23,0,0,1,7.8,2.992a.208.208,0,0,1-.066-.159V2.118A.208.208,0,0,1,7.8,1.96.23.23,0,0,1,7.962,1.9H8.65V.441A.208.208,0,0,1,8.717.282.219.219,0,0,1,8.871.221H9.9a.212.212,0,0,1,.221.221V1.9h1.1a.23.23,0,0,1,.163.062.208.208,0,0,1,.066.159v.715a.208.208,0,0,1-.066.159.23.23,0,0,1-.163.062h-1.1V4.625q0,.653.5.653h.68a.212.212,0,0,1,.221.221v.768a.219.219,0,0,1-.062.154.208.208,0,0,1-.159.066Zm1.995,0a.212.212,0,0,1-.221-.221V2.118a.212.212,0,0,1,.221-.221h1.015a.222.222,0,0,1,.163.066.212.212,0,0,1,.066.154v.353A1.623,1.623,0,0,1,15.023,1.9h.388a.212.212,0,0,1,.221.221v.909a.219.219,0,0,1-.062.154.208.208,0,0,1-.159.066h-.856a.758.758,0,0,0-.561.2.758.758,0,0,0-.2.561v2.26a.208.208,0,0,1-.066.159.23.23,0,0,1-.163.062Zm4-5.252a.212.212,0,0,1-.221-.221V.221A.212.212,0,0,1,16.471,0H17.53a.212.212,0,0,1,.221.221v.794a.212.212,0,0,1-.221.221Zm.009,5.252a.212.212,0,0,1-.221-.221V2.118A.212.212,0,0,1,16.48,1.9h1.042a.212.212,0,0,1,.221.221V6.267a.219.219,0,0,1-.062.154.208.208,0,0,1-.159.066Zm2.525,0a.212.212,0,0,1-.221-.221V2.118A.212.212,0,0,1,19,1.9H20.02a.23.23,0,0,1,.163.062.208.208,0,0,1,.066.159v.335a1.729,1.729,0,0,1,.613-.468,1.977,1.977,0,0,1,.852-.177,1.64,1.64,0,0,1,1.262.525,2.084,2.084,0,0,1,.485,1.47V6.267a.219.219,0,0,1-.062.154.208.208,0,0,1-.159.066H22.129a.226.226,0,0,1-.221-.221V3.857a.923.923,0,0,0-.2-.64.744.744,0,0,0-.583-.225.761.761,0,0,0-.583.225.9.9,0,0,0-.212.64v2.41a.219.219,0,0,1-.062.154.208.208,0,0,1-.159.066Zm7.574.088A2.335,2.335,0,0,1,24.91,6a2.262,2.262,0,0,1-.636-1.668V4.025A2.26,2.26,0,0,1,24.923,2.4a2.282,2.282,0,0,1,1.646-.587,2.455,2.455,0,0,1,1.267.3,1.949,1.949,0,0,1,.777.834,2.727,2.727,0,0,1,.26,1.218v.212a.219.219,0,0,1-.062.154.208.208,0,0,1-.159.066H25.828v.062a1.209,1.209,0,0,0,.2.671.623.623,0,0,0,.538.256.648.648,0,0,0,.362-.093,1.234,1.234,0,0,0,.256-.225.436.436,0,0,1,.128-.119.4.4,0,0,1,.154-.022h1.095a.2.2,0,0,1,.137.049.159.159,0,0,1,.057.128.867.867,0,0,1-.26.53,2.132,2.132,0,0,1-.755.521A2.839,2.839,0,0,1,26.578,6.576Zm.741-2.851V3.707a1.075,1.075,0,0,0-.2-.684.664.664,0,0,0-.552-.252.654.654,0,0,0-.543.252,1.075,1.075,0,0,0-.2.684v.018Z" transform="translate(13.528 5.107) rotate(90)" fill="#fff"/>
    <path id="Path_62" data-name="Path 62" d="M.116,2.451a.111.111,0,0,1-.081-.035A.111.111,0,0,1,0,2.335V1.748a.109.109,0,0,1,.035-.083.115.115,0,0,1,.081-.032H.7a.111.111,0,0,1,.116.116v.587a.115.115,0,0,1-.032.081A.109.109,0,0,1,.7,2.451ZM2.335,2.5A1.034,1.034,0,0,1,1.889,2.4a.771.771,0,0,1-.314-.259.625.625,0,0,1-.113-.363.609.609,0,0,1,.261-.513A1.633,1.633,0,0,1,2.441,1L3.019.911V.846A.382.382,0,0,0,2.945.587.32.32,0,0,0,2.7.5.371.371,0,0,0,2.52.541a.774.774,0,0,0-.143.1.731.731,0,0,1-.1.074.051.051,0,0,1-.051.037h-.5a.1.1,0,0,1-.076-.03A.084.084,0,0,1,1.623.652.5.5,0,0,1,1.745.375.937.937,0,0,1,2.106.111,1.437,1.437,0,0,1,2.7,0a1.207,1.207,0,0,1,.842.252.877.877,0,0,1,.273.677V2.335a.115.115,0,0,1-.032.081.109.109,0,0,1-.083.035H3.167a.119.119,0,0,1-.116-.116V2.173a.743.743,0,0,1-.284.233A.967.967,0,0,1,2.335,2.5Zm.217-.527A.453.453,0,0,0,2.9,1.831a.569.569,0,0,0,.132-.407V1.359l-.393.069q-.416.074-.416.291a.211.211,0,0,0,.1.183A.4.4,0,0,0,2.552,1.97ZM5.8,3.468a1.53,1.53,0,0,1-.712-.143A1,1,0,0,1,4.7,3a.617.617,0,0,1-.118-.31.1.1,0,0,1,.037-.074A.123.123,0,0,1,4.7,2.58h.587a.11.11,0,0,1,.072.021.2.2,0,0,1,.049.072.428.428,0,0,0,.125.169.392.392,0,0,0,.245.062.423.423,0,0,0,.314-.1.49.49,0,0,0,.1-.349v-.31a.867.867,0,0,1-.675.259A.911.911,0,0,1,4.8,2.125a1.241,1.241,0,0,1-.27-.8l0-.125a1.4,1.4,0,0,1,.25-.881A.879.879,0,0,1,5.516,0a.9.9,0,0,1,.721.333V.162A.109.109,0,0,1,6.272.079.115.115,0,0,1,6.353.046h.532A.116.116,0,0,1,6.97.081.111.111,0,0,1,7,.162V2.386a1.016,1.016,0,0,1-.314.8A1.306,1.306,0,0,1,5.8,3.468ZM5.766,1.8a.373.373,0,0,0,.31-.127.565.565,0,0,0,.116-.321,1.331,1.331,0,0,0,0-.143,1.264,1.264,0,0,0,0-.139A.533.533,0,0,0,6.078.747.38.38,0,0,0,5.766.62a.367.367,0,0,0-.314.129.626.626,0,0,0-.106.356l0,.1a.862.862,0,0,0,.092.432A.352.352,0,0,0,5.766,1.8Z" transform="translate(9.701 34.927) rotate(90)" fill="#fff"/>
    <g id="Group_205" data-name="Group 205" transform="translate(42.874 27.111) rotate(90)">
      <path id="Retângulo_151" data-name="Retângulo 151" d="M2.732.841A1.891,1.891,0,1,0,4.624,2.732,1.894,1.894,0,0,0,2.732.841m0-.841A2.732,2.732,0,1,1,0,2.732,2.732,2.732,0,0,1,2.732,0Z" transform="translate(0 7.986)" fill="#fff"/>
      <path id="Retângulo_152" data-name="Retângulo 152" d="M2.732.841A1.891,1.891,0,1,0,4.624,2.732,1.894,1.894,0,0,0,2.732.841m0-.841A2.732,2.732,0,1,1,0,2.732,2.732,2.732,0,0,1,2.732,0Z" transform="translate(9.457 14.081)" fill="#fff"/>
      <path id="Retângulo_153" data-name="Retângulo 153" d="M2.732.841A1.891,1.891,0,1,0,4.624,2.732,1.894,1.894,0,0,0,2.732.841m0-.841A2.732,2.732,0,1,1,0,2.732,2.732,2.732,0,0,1,2.732,0Z" transform="translate(9.457 2.522)" fill="#fff"/>
      <path id="Caminho_56" data-name="Caminho 56" d="M5.647,3.85,0,.736.406,0,6.053,3.114Z" transform="translate(4.475 11.943)" fill="#fff"/>
      <path id="Caminho_57" data-name="Caminho 57" d="M5.647,3.85,0,.736.406,0,6.053,3.114Z" transform="translate(4.258 9.683) rotate(-60)" fill="#fff"/>
      <path id="Retângulo_154" data-name="Retângulo 154" d="M2.312.63A1.681,1.681,0,1,0,3.993,2.312,1.683,1.683,0,0,0,2.312.63m0-.63A2.312,2.312,0,1,1,0,2.312,2.312,2.312,0,0,1,2.312,0Z" transform="translate(0.42)" fill="#fff"/>
      <path id="Caminho_59" data-name="Caminho 59" d="M5.881.63H4.83a.315.315,0,1,1,0-.63H5.881a.315.315,0,0,1,0,.63ZM3.359.63H2.308a.315.315,0,1,1,0-.63H3.359a.315.315,0,0,1,0,.63ZM.837.63H.315a.315.315,0,0,1,0-.63H.837a.315.315,0,1,1,0,.63Z" transform="translate(4.441 2.478) rotate(14)" fill="#fff"/>
      <path id="Caminho_60" data-name="Caminho 60" d="M11.454.63H10.4a.315.315,0,1,1,0-.63h1.051a.315.315,0,1,1,0,.63ZM8.932.63H7.881a.315.315,0,1,1,0-.63H8.932a.315.315,0,1,1,0,.63ZM6.41.63H5.359a.315.315,0,1,1,0-.63H6.41a.315.315,0,1,1,0,.63ZM3.888.63H2.837a.315.315,0,1,1,0-.63H3.888a.315.315,0,1,1,0,.63ZM1.366.63H.315a.315.315,0,0,1,0-.63H1.366a.315.315,0,1,1,0,.63Z" transform="matrix(0.588, 0.809, -0.809, 0.588, 4.939, 4.734)" fill="#fff"/>
    </g>
  </g>
</svg>