<svg xmlns="http://www.w3.org/2000/svg" width="80.007" height="44.527" viewBox="0 0 80.007 44.527">
  <g id="Group_124" data-name="Group 124" transform="translate(-3196.706 -691)">
    <path id="Path_41" data-name="Path 41" d="M6.368,26.613a.7.7,0,0,1-.662-.662.957.957,0,0,1,.032-.284L13.149,5.418a1.146,1.146,0,0,1,.41-.631,1.273,1.273,0,0,1,.82-.252h4.668a1.273,1.273,0,0,1,.82.252,1.146,1.146,0,0,1,.41.631l7.38,20.248.063.284a.633.633,0,0,1-.205.457.667.667,0,0,1-.489.205H23.147a.981.981,0,0,1-1.009-.662l-1.23-3.217H12.487l-1.2,3.217a1,1,0,0,1-1.041.662Zm13.278-8.421L16.713,9.865,13.78,18.192Zm16.8,8.736a10.455,10.455,0,0,1-7.1-2.224,8.389,8.389,0,0,1-2.712-6.324q-.032-.915-.032-2.9t.032-2.9A8.05,8.05,0,0,1,29.394,6.4,10.644,10.644,0,0,1,36.443,4.22a12.882,12.882,0,0,1,5.22.978,8.6,8.6,0,0,1,3.406,2.492,5.379,5.379,0,0,1,1.246,3.122.617.617,0,0,1-.205.473.7.7,0,0,1-.489.189h-4.6a1.136,1.136,0,0,1-.5-.095.734.734,0,0,1-.315-.347A4.137,4.137,0,0,0,38.9,9.44a3.956,3.956,0,0,0-2.46-.678q-3.753,0-3.942,3.974-.032.883-.032,2.744,0,1.829.032,2.744.189,4.163,4.037,4.163a4.416,4.416,0,0,0,2.98-.962,3.678,3.678,0,0,0,1.12-2.949v-.6H37.673a.742.742,0,0,1-.568-.237.823.823,0,0,1-.221-.583V14.723a.823.823,0,0,1,.221-.583.742.742,0,0,1,.568-.237h7.948a.742.742,0,0,1,.568.237.823.823,0,0,1,.221.583v3.6a8.446,8.446,0,0,1-1.23,4.62A7.859,7.859,0,0,1,41.695,25.9,12.581,12.581,0,0,1,36.443,26.928Zm11.972-.315a.808.808,0,0,1-.788-.788V5.324a.742.742,0,0,1,.237-.568.783.783,0,0,1,.552-.221h8.579a9.986,9.986,0,0,1,6.45,1.877,6.448,6.448,0,0,1,2.318,5.314,6.562,6.562,0,0,1-1.041,3.753,6.647,6.647,0,0,1-2.87,2.365L66.172,25.6a.785.785,0,0,1,.095.347.7.7,0,0,1-.662.662H61.409a1.317,1.317,0,0,1-1.293-.852l-3.6-6.939H53.3v7a.742.742,0,0,1-.237.568.823.823,0,0,1-.583.221Zm8.516-12.269a3.114,3.114,0,0,0,2.208-.71,2.57,2.57,0,0,0,.757-1.971,2.706,2.706,0,0,0-.741-2,3.02,3.02,0,0,0-2.224-.741H53.3v5.425Zm19,12.584a10.453,10.453,0,0,1-7-2.176,8.381,8.381,0,0,1-2.712-6.4q-.032-.915-.032-2.712,0-1.829.032-2.744a8.488,8.488,0,0,1,2.76-6.418A10.248,10.248,0,0,1,75.935,4.22a10.31,10.31,0,0,1,6.97,2.255,8.368,8.368,0,0,1,2.744,6.418q.063,1.829.063,2.744,0,.883-.063,2.712a8.381,8.381,0,0,1-2.712,6.4A10.453,10.453,0,0,1,75.935,26.928Zm0-4.542a3.7,3.7,0,0,0,2.76-1.041,4.58,4.58,0,0,0,1.088-3.185q.063-1.829.063-2.586,0-.82-.063-2.586a4.535,4.535,0,0,0-1.1-3.185,3.71,3.71,0,0,0-2.744-1.041A3.656,3.656,0,0,0,73.207,9.8a4.688,4.688,0,0,0-1.12,3.185q-.032.883-.032,2.586,0,1.672.032,2.586a4.737,4.737,0,0,0,1.1,3.185A3.645,3.645,0,0,0,75.935,22.387Z" transform="translate(3191 708.599)" fill="#145972"/>
    <path id="Intersection_3" data-name="Intersection 3" d="M23.641,16.756a7.475,7.475,0,0,1-2.2-3.344,36.646,36.646,0,0,0,3.612-2.234q.878-.615,1.736-1.2,0,.156.009.292.189,4.163,4.037,4.163a4.417,4.417,0,0,0,2.981-.962,3.677,3.677,0,0,0,1.12-2.949v-.6H31.967a.743.743,0,0,1-.568-.236.824.824,0,0,1-.221-.584V7.164q1.048-.634,2.065-1.21h6.671a.741.741,0,0,1,.568.237.821.821,0,0,1,.221.583v3.6a8.445,8.445,0,0,1-1.23,4.62,7.857,7.857,0,0,1-3.485,2.964,12.577,12.577,0,0,1-5.251,1.025A10.458,10.458,0,0,1,23.641,16.756ZM55.7,18.664a1.317,1.317,0,0,1-1.293-.851l-3.6-6.939H47.6v7a.741.741,0,0,1-.237.568.821.821,0,0,1-.583.221H42.709a.809.809,0,0,1-.789-.788V1.886C48.7-.539,54.431-.575,59.751,1.49a8.119,8.119,0,0,1,.3,2.288,6.561,6.561,0,0,1-1.041,3.753A6.641,6.641,0,0,1,56.144,9.9l3.682,6.612c-.669.727-1.369,1.448-2.086,2.156ZM47.6,6.4h3.627a3.115,3.115,0,0,0,2.208-.709,2.571,2.571,0,0,0,.757-1.971,2.707,2.707,0,0,0-.741-2A3.021,3.021,0,0,0,51.225.971H47.6ZM17.441,18.664A.98.98,0,0,1,16.432,18l-.81-2.12a33.077,33.077,0,0,0,4.929-2.007l1.4,3.842.063.284a.632.632,0,0,1-.2.457.667.667,0,0,1-.489.205Zm-16.779,0a.631.631,0,0,1-.457-.205A.633.633,0,0,1,0,18a.95.95,0,0,1,.032-.284l.306-.836a33.723,33.723,0,0,0,5.483.479L5.582,18a1,1,0,0,1-1.04.662ZM60.516,10.4q-.032-.914-.032-2.712,0-1.83.032-2.744A10.9,10.9,0,0,1,61,2.017q1.109.5,2.2,1.133c4.023,2.312,2.084,6.838-1.7,11.446A10.035,10.035,0,0,1,60.516,10.4ZM37.941,3.526q1.339-.621,2.626-1.13a4.6,4.6,0,0,1,.042.468.616.616,0,0,1-.2.473.7.7,0,0,1-.489.19Z" transform="translate(3196.706 716.547)" fill="#569f93"/>
    <path id="Intersection_2" data-name="Intersection 2" d="M42.33,13.838a8.381,8.381,0,0,1-2.712-6.4q-.017-.483-.025-1.213a27.651,27.651,0,0,1,5.983,1.952,4.083,4.083,0,0,0,1.012,2.256,3.644,3.644,0,0,0,2.744,1.041,4.729,4.729,0,0,0,1.129-.128A20.649,20.649,0,0,1,53.9,15.265a12.744,12.744,0,0,1-4.567.749A10.454,10.454,0,0,1,42.33,13.838ZM2.744,13.791A8.389,8.389,0,0,1,.031,7.467Q0,6.552,0,4.566t.031-2.9A11.157,11.157,0,0,1,.217,0,30.086,30.086,0,0,0,5.871,3.283q0,.57,0,1.283,0,1.829.032,2.744.189,4.163,4.037,4.163a4.417,4.417,0,0,0,2.981-.962,3.677,3.677,0,0,0,1.12-2.949v-.6H11.07a.741.741,0,0,1-.568-.236.823.823,0,0,1-.221-.584V4.823a30.871,30.871,0,0,0,9.525.924V7.4a8.445,8.445,0,0,1-1.23,4.62,7.861,7.861,0,0,1-3.485,2.965A12.586,12.586,0,0,1,9.84,16.014,10.455,10.455,0,0,1,2.744,13.791ZM34.805,15.7a1.317,1.317,0,0,1-1.293-.851l-3.6-6.939H26.7v7a.741.741,0,0,1-.237.568.822.822,0,0,1-.583.221H21.812a.809.809,0,0,1-.789-.788V5.66a71.21,71.21,0,0,1,16.036.116,7.048,7.048,0,0,1-1.812,1.155l4.321,7.759a.786.786,0,0,1,.095.347A.7.7,0,0,1,39,15.7Z" transform="translate(3217.604 719.512)" fill="#72d3a2"/>
    <path id="Intersection_1" data-name="Intersection 1" d="M38.093,16.531a8.382,8.382,0,0,1-2.712-6.4q-.032-.914-.032-2.712,0-.385,0-.73A54.772,54.772,0,0,1,41.5,3.112a6.827,6.827,0,0,0-.258,1.655q-.032.883-.031,2.586,0,1.672.031,2.586a4.735,4.735,0,0,0,1.1,3.185,3.644,3.644,0,0,0,2.744,1.041,3.7,3.7,0,0,0,2.76-1.041,4.58,4.58,0,0,0,1.088-3.185q.063-1.829.063-2.586,0-.82-.063-2.586a4.536,4.536,0,0,0-1.1-3.185,3.39,3.39,0,0,0-.857-.626A22.711,22.711,0,0,1,53.552,0a9.355,9.355,0,0,1,1.256,4.671q.064,1.829.063,2.744,0,.882-.063,2.712a8.381,8.381,0,0,1-2.712,6.4,10.452,10.452,0,0,1-7,2.176A10.454,10.454,0,0,1,38.093,16.531ZM0,17.506a30.657,30.657,0,0,0,5.878,1.2l-.275,0A11.85,11.85,0,0,1,0,17.506Zm30.568.886a1.317,1.317,0,0,1-1.293-.851l-2.364-4.562q.668-.489,1.335-1.029,1.441-1.167,2.825-2.216l4.26,7.649a.786.786,0,0,1,.095.347.7.7,0,0,1-.662.662Zm-12.994,0a.754.754,0,0,1-.552-.236.808.808,0,0,1-.19-.286,29.409,29.409,0,0,0,5.63-2.156V17.6a.741.741,0,0,1-.237.568.822.822,0,0,1-.583.221Zm15.4-10.063a6.725,6.725,0,0,1-1.338.98Q32.312,8.8,32.975,8.328Z" transform="translate(3221.841 716.819)" fill="#5abaa8"/>
    <text id="Vitrine" transform="translate(3199.366 707)" fill="#032b44" font-size="17" font-family="Rubik-Regular, Rubik"><tspan x="0" y="0">Vitrine</tspan></text>
  </g>
</svg>
