<svg xmlns="http://www.w3.org/2000/svg" width="24.911" height="24.891" viewBox="0 0 24.911 24.891">
  <path id="Union_4" data-name="Union 4" d="M-10311.473,2614.634a14.393,14.393,0,0,1-5.9-3.153l-.019.022-.266-.265a21.449,21.449,0,0,1-2-1.985l-1.592-1.583c-1.078-.927-4.592-4.207-5.5-8.285a8.512,8.512,0,0,1,1.747-7.544c2.916-3.6,5.531-.973,6.565,0s3.309,3.672.416,5.96c-2.439,1.93-2.555,3.091-1.276,4.8l4.81,4.726c1.6,1.115,2.746.915,4.594-1.424,2.288-2.9,4.986-.621,5.959.414s3.6,3.653,0,6.569a8.684,8.684,0,0,1-5.533,2A7.286,7.286,0,0,1-10311.473,2614.634Z" transform="translate(10326.999 -2589.999)"/>
</svg>
