<svg xmlns="http://www.w3.org/2000/svg" width="37.001" height="28.999" viewBox="0 0 37.001 28.999">
  <g id="Subtraction_4" data-name="Subtraction 4" transform="translate(5111 367)" fill="none">
    <path d="M-5092.5-338a32.224,32.224,0,0,1-13.081-2.488c-3.495-1.606-5.419-3.74-5.419-6.009a4.164,4.164,0,0,1,.287-1.5,4.174,4.174,0,0,1-.287-1.5,4.283,4.283,0,0,1,.515-2c.956,1.822,3.249,3.472,6.458,4.648A34,34,0,0,0-5092.5-345a34.005,34.005,0,0,0,11.528-1.851c3.208-1.175,5.5-2.826,6.458-4.648a4.281,4.281,0,0,1,.515,2,4.231,4.231,0,0,1-.449,1.868c.055-.109.109-.232.162-.367a4.15,4.15,0,0,1,.289,1.5C-5074-341.813-5082.3-338-5092.5-338Zm-12.839-5.379h0c.189.083.38.164.566.239C-5104.947-343.211-5105.15-343.3-5105.339-343.38Z" stroke="none"/>
    <path d="M -5092.5 -340.0008850097656 C -5087.84814453125 -340.0008850097656 -5083.50048828125 -340.8209838867188 -5080.25830078125 -342.3101196289062 C -5077.5908203125 -343.5352478027344 -5075.99853515625 -345.1011047363281 -5075.99853515625 -346.4987182617188 C -5075.99853515625 -346.6824340820312 -5076.02587890625 -346.8709106445312 -5076.07958984375 -347.0613403320312 C -5077.25390625 -346.2692260742188 -5078.6630859375 -345.5677185058594 -5080.2841796875 -344.9736938476562 C -5083.80712890625 -343.6828308105469 -5088.03125 -343.0005187988281 -5092.5 -343.0005187988281 C -5096.716796875 -343.0005187988281 -5100.71533203125 -343.6080017089844 -5104.11279296875 -344.7609252929688 L -5105.05224609375 -342.451171875 C -5104.9521484375 -342.4024963378906 -5104.85009765625 -342.3544311523438 -5104.74658203125 -342.3067932128906 C -5101.50830078125 -340.8197937011719 -5097.1591796875 -340.0008850097656 -5092.5 -340.0008850097656 M -5107.3310546875 -343.85595703125 L -5106.44384765625 -345.6841430664062 C -5107.35791015625 -346.1049194335938 -5108.1845703125 -346.5652160644531 -5108.919921875 -347.0610656738281 C -5108.97314453125 -346.8712463378906 -5109 -346.6828918457031 -5109 -346.4987182617188 C -5109 -345.6410827636719 -5108.404296875 -344.7211608886719 -5107.3310546875 -343.85595703125 M -5092.5 -338.0008850097656 C -5097.44091796875 -338.0008850097656 -5102.0869140625 -338.8846130371094 -5105.5810546875 -340.4892883300781 C -5109.07568359375 -342.0949096679688 -5111 -344.2290954589844 -5111 -346.4987182617188 C -5111 -347.0008850097656 -5110.9033203125 -347.5055847167969 -5110.71337890625 -347.998779296875 C -5110.9033203125 -348.4926452636719 -5111 -348.998046875 -5111 -349.5002136230469 C -5111 -350.1756896972656 -5110.82666015625 -350.8484497070312 -5110.4853515625 -351.499755859375 C -5109.529296875 -349.6780700683594 -5107.236328125 -348.0273132324219 -5104.02783203125 -346.8516235351562 C -5100.72314453125 -345.640625 -5096.73681640625 -345.0005187988281 -5092.5 -345.0005187988281 C -5088.263671875 -345.0005187988281 -5084.27734375 -345.640625 -5080.97216796875 -346.8516235351562 C -5077.76416015625 -348.0270690917969 -5075.47119140625 -349.6778259277344 -5074.5146484375 -351.499755859375 C -5074.17236328125 -350.846923828125 -5073.99951171875 -350.1741638183594 -5073.99951171875 -349.5002136230469 C -5073.99951171875 -348.8701782226562 -5074.15087890625 -348.2418212890625 -5074.44873046875 -347.6325988769531 C -5074.39404296875 -347.741455078125 -5074.33935546875 -347.8645935058594 -5074.287109375 -347.9994506835938 C -5074.09521484375 -347.5034790039062 -5073.99853515625 -346.9985656738281 -5073.99853515625 -346.4987182617188 C -5073.99853515625 -341.81298828125 -5082.29833984375 -338.0008850097656 -5092.5 -338.0008850097656 Z M -5105.3388671875 -343.380126953125 L -5105.33935546875 -343.3791198730469 C -5105.14990234375 -343.2963562011719 -5104.95947265625 -343.2153930664062 -5104.7734375 -343.1398315429688 C -5104.947265625 -343.2106628417969 -5105.14990234375 -343.2962646484375 -5105.3388671875 -343.380126953125 Z" stroke="none" fill="#c17330"/>
  </g>
  <g id="Group_164" data-name="Group 164" transform="translate(-487 -748)">
    <g id="Ellipse_5" data-name="Ellipse 5" transform="translate(487 748)" fill="none" stroke="#c17330" stroke-width="2">
      <ellipse cx="18.5" cy="8.5" rx="18.5" ry="8.5" stroke="none"/>
      <ellipse cx="18.5" cy="8.5" rx="17.5" ry="7.5" fill="none"/>
    </g>
    <g id="Subtraction_3" data-name="Subtraction 3" transform="translate(5598 1110)" fill="#c07330">
      <path d="M -5092.5 -343.0003051757812 C -5097.30078125 -343.0003051757812 -5101.79833984375 -343.8520202636719 -5105.1640625 -345.3985290527344 C -5106.77880859375 -346.140380859375 -5108.021484375 -346.9870910644531 -5108.8583984375 -347.9150695800781 C -5109.1083984375 -348.1924438476562 -5109.31787109375 -348.4729309082031 -5109.486328125 -348.7558288574219 C -5108.29638671875 -347.7293701171875 -5106.71240234375 -346.8172912597656 -5104.8046875 -346.0757446289062 C -5101.36083984375 -344.7375183105469 -5096.9912109375 -344.0005187988281 -5092.5 -344.0005187988281 C -5088.00927734375 -344.0005187988281 -5083.6396484375 -344.7375183105469 -5080.19580078125 -346.0757446289062 C -5078.29931640625 -346.8126525878906 -5076.7236328125 -347.71826171875 -5075.53564453125 -348.7371215820312 C -5076.275390625 -347.5199279785156 -5077.7578125 -346.3585815429688 -5079.841796875 -345.4011535644531 C -5083.2119140625 -343.8529357910156 -5087.70751953125 -343.0003051757812 -5092.5 -343.0003051757812 Z" stroke="none"/>
      <path d="M -5092.5 -342.0003051757812 C -5097.44140625 -342.0003051757812 -5102.08740234375 -342.8844299316406 -5105.58154296875 -344.4898376464844 C -5109.07568359375 -346.0952453613281 -5111 -348.2294921875 -5111 -350.4994201660156 C -5111 -351.0037841796875 -5110.9033203125 -351.5084838867188 -5110.712890625 -351.9995422363281 C -5109.9619140625 -350.0603637695312 -5107.7353515625 -348.2876281738281 -5104.4423828125 -347.0078430175781 C -5101.111328125 -345.7134094238281 -5096.8701171875 -345.0005187988281 -5092.5 -345.0005187988281 C -5088.1298828125 -345.0005187988281 -5083.88916015625 -345.7134094238281 -5080.55810546875 -347.0078430175781 C -5077.265625 -348.2872619628906 -5075.03857421875 -350.0600280761719 -5074.287109375 -351.9995422363281 C -5074.095703125 -351.5063781738281 -5073.99951171875 -351.0016784667969 -5073.99951171875 -350.4994201660156 C -5073.99951171875 -345.81298828125 -5082.298828125 -342.0003051757812 -5092.5 -342.0003051757812 Z" stroke="none" fill="#c17330"/>
    </g>
  </g>
</svg>
