<svg xmlns="http://www.w3.org/2000/svg" width="19" height="18" viewBox="0 0 19 18">
  <g id="Group_38" data-name="Group 38" transform="translate(-717 -534)">
    <path id="Retângulo_39" data-name="Retângulo 39" d="M3,1A2,2,0,0,0,1,3v8a2,2,0,0,0,2,2H16a2,2,0,0,0,2-2V3a2,2,0,0,0-2-2H3M3,0H16a3,3,0,0,1,3,3v8a3,3,0,0,1-3,3H3a3,3,0,0,1-3-3V3A3,3,0,0,1,3,0Z" transform="translate(717 538)" fill="#032b44"/>
    <path id="Caminho_10" data-name="Caminho 10" d="M706.593,744.046a5.128,5.128,0,0,1,1.194-3.249,4.215,4.215,0,0,1,5.8,0,5.137,5.137,0,0,1,1.2,3.248l-1.153-.013a3.9,3.9,0,0,0-.874-2.385,3.122,3.122,0,0,0-4.152.006,3.914,3.914,0,0,0-.862,2.378Z" transform="translate(15.811 -205.642)" fill="#032b44"/>
  </g>
</svg>
