<svg xmlns="http://www.w3.org/2000/svg" width="39" height="27" viewBox="0 0 39 27">
  <g id="Group_143" data-name="Group 143" transform="translate(-152 -948)">
    <rect id="Rectangle_104" data-name="Rectangle 104" width="11" height="11" rx="5.5" transform="translate(177 956)" fill="#50b3c6" opacity="0.996"/>
    <rect id="Rectangle_101" data-name="Rectangle 101" width="16" height="16" rx="8" transform="translate(157 948)" fill="#32769f"/>
    <path id="Rectangle_103" data-name="Rectangle 103" d="M6,0h6a6,6,0,0,1,6,6V6a0,0,0,0,1,0,0H0A0,0,0,0,1,0,6V6A6,6,0,0,1,6,0Z" transform="translate(173 969)" fill="#50b3c6" opacity="0.996"/>
    <path id="Rectangle_102" data-name="Rectangle 102" d="M9,0h8a9,9,0,0,1,9,9V9a0,0,0,0,1,0,0H0A0,0,0,0,1,0,9V9A9,9,0,0,1,9,0Z" transform="translate(152 966)" fill="#32769f"/>
  </g>
</svg>
